<?xml version="1.0" encoding="UTF-8" standalone="no"?>
<!-- Created with Inkscape (http://www.inkscape.org/) -->

<svg
   xmlns:dc="http://purl.org/dc/elements/1.1/"
   xmlns:cc="http://creativecommons.org/ns#"
   xmlns:rdf="http://www.w3.org/1999/02/22-rdf-syntax-ns#"
   xmlns:svg="http://www.w3.org/2000/svg"
   xmlns="http://www.w3.org/2000/svg"
   xmlns:sodipodi="http://sodipodi.sourceforge.net/DTD/sodipodi-0.dtd"
   xmlns:inkscape="http://www.inkscape.org/namespaces/inkscape"
   version="1.1"
   id="svg2"
   xml:space="preserve"
   width="793.70135"
   height="1122.52"
   viewBox="0 0 793.70135 1122.52"
   sodipodi:docname="1a.svg"
   inkscape:version="0.92.3 (2405546, 2018-03-11)"><metadata
     id="metadata8"><rdf:RDF><cc:Work
         rdf:about=""><dc:format>image/svg+xml</dc:format><dc:type
           rdf:resource="http://purl.org/dc/dcmitype/StillImage" /><dc:title></dc:title></cc:Work></rdf:RDF></metadata><defs
     id="defs6"><clipPath
       clipPathUnits="userSpaceOnUse"
       id="clipPath76"><path
         d="M 0,0 H 478.652 V 340.653 H 0 Z"
         id="path74"
         inkscape:connector-curvature="0" /></clipPath><clipPath
       clipPathUnits="userSpaceOnUse"
       id="clipPath84"><path
         d="M 0,0 H 507 V 369 H 0 Z"
         id="path82"
         inkscape:connector-curvature="0" /></clipPath><clipPath
       clipPathUnits="userSpaceOnUse"
       id="clipPath88"><path
         d="M 0,1.2207e-4 H 507 V 369.00012 H 0 Z"
         id="path86"
         inkscape:connector-curvature="0"
         style="clip-rule:evenodd" /></clipPath><clipPath
       clipPathUnits="userSpaceOnUse"
       id="clipPath92"><path
         d="M 7.555e-6,0 H 507.00001 V 369 H 7.555e-6 Z"
         id="path90"
         inkscape:connector-curvature="0"
         style="clip-rule:evenodd" /></clipPath><clipPath
       clipPathUnits="userSpaceOnUse"
       id="clipPath96"><path
         d="M 7.555e-6,0 H 507.00001 V 369 H 7.555e-6 Z"
         id="path94"
         inkscape:connector-curvature="0"
         style="clip-rule:evenodd" /></clipPath><clipPath
       clipPathUnits="userSpaceOnUse"
       id="clipPath100"><path
         d="M 7.555e-6,0 H 507.00001 V 369 H 7.555e-6 Z"
         id="path98"
         inkscape:connector-curvature="0"
         style="clip-rule:evenodd" /></clipPath><clipPath
       clipPathUnits="userSpaceOnUse"
       id="clipPath104"><path
         d="M 7.555e-6,0 H 507.00001 V 369 H 7.555e-6 Z"
         id="path102"
         inkscape:connector-curvature="0"
         style="clip-rule:evenodd" /></clipPath><clipPath
       clipPathUnits="userSpaceOnUse"
       id="clipPath108"><path
         d="M 7.555e-6,0 H 507.00001 V 369 H 7.555e-6 Z"
         id="path106"
         inkscape:connector-curvature="0"
         style="clip-rule:evenodd" /></clipPath><clipPath
       clipPathUnits="userSpaceOnUse"
       id="clipPath112"><path
         d="M 7.555e-6,0 H 507.00001 V 369 H 7.555e-6 Z"
         id="path110"
         inkscape:connector-curvature="0"
         style="clip-rule:evenodd" /></clipPath><clipPath
       clipPathUnits="userSpaceOnUse"
       id="clipPath116"><path
         d="M 7.555e-6,0 H 507.00001 V 369 H 7.555e-6 Z"
         id="path114"
         inkscape:connector-curvature="0"
         style="clip-rule:evenodd" /></clipPath><clipPath
       clipPathUnits="userSpaceOnUse"
       id="clipPath120"><path
         d="M 7.555e-6,0 H 507.00001 V 369 H 7.555e-6 Z"
         id="path118"
         inkscape:connector-curvature="0"
         style="clip-rule:evenodd" /></clipPath><clipPath
       clipPathUnits="userSpaceOnUse"
       id="clipPath124"><path
         d="M 7.555e-6,0 H 507.00001 V 369 H 7.555e-6 Z"
         id="path122"
         inkscape:connector-curvature="0"
         style="clip-rule:evenodd" /></clipPath><clipPath
       clipPathUnits="userSpaceOnUse"
       id="clipPath128"><path
         d="M 7.555e-6,0 H 507.00001 V 369 H 7.555e-6 Z"
         id="path126"
         inkscape:connector-curvature="0"
         style="clip-rule:evenodd" /></clipPath><clipPath
       clipPathUnits="userSpaceOnUse"
       id="clipPath132"><path
         d="M 7.555e-6,0 H 507.00001 V 369 H 7.555e-6 Z"
         id="path130"
         inkscape:connector-curvature="0"
         style="clip-rule:evenodd" /></clipPath><clipPath
       clipPathUnits="userSpaceOnUse"
       id="clipPath136"><path
         d="M 7.555e-6,0 H 507.00001 V 369 H 7.555e-6 Z"
         id="path134"
         inkscape:connector-curvature="0"
         style="clip-rule:evenodd" /></clipPath><clipPath
       clipPathUnits="userSpaceOnUse"
       id="clipPath140"><path
         d="M 7.555e-6,0 H 507.00001 V 369 H 7.555e-6 Z"
         id="path138"
         inkscape:connector-curvature="0"
         style="clip-rule:evenodd" /></clipPath><clipPath
       clipPathUnits="userSpaceOnUse"
       id="clipPath144"><path
         d="M 7.555e-6,0 H 507.00001 V 369 H 7.555e-6 Z"
         id="path142"
         inkscape:connector-curvature="0"
         style="clip-rule:evenodd" /></clipPath><clipPath
       clipPathUnits="userSpaceOnUse"
       id="clipPath148"><path
         d="M -1.3385e-5,369 H 507 V 0 L -3.6145e-5,-3.0518e-5"
         id="path146"
         inkscape:connector-curvature="0"
         style="clip-rule:evenodd" /></clipPath><clipPath
       clipPathUnits="userSpaceOnUse"
       id="clipPath152"><path
         d="M -1.3385e-5,369 H 507 V 0 L -3.6145e-5,-3.0518e-5"
         id="path150"
         inkscape:connector-curvature="0"
         style="clip-rule:evenodd" /></clipPath><clipPath
       clipPathUnits="userSpaceOnUse"
       id="clipPath156"><path
         d="M -7.083e-6,369 H 507 V 6.1035e-5 L -5.77e-7,3.0518e-5"
         id="path154"
         inkscape:connector-curvature="0"
         style="clip-rule:evenodd" /></clipPath><clipPath
       clipPathUnits="userSpaceOnUse"
       id="clipPath160"><path
         d="M -7.083e-6,369 H 507 V 6.1035e-5 L -5.77e-7,3.0518e-5"
         id="path158"
         inkscape:connector-curvature="0"
         style="clip-rule:evenodd" /></clipPath><clipPath
       clipPathUnits="userSpaceOnUse"
       id="clipPath164"><path
         d="M -1.1893e-5,369 H 507 V 3.0518e-5 H -4.292e-5"
         id="path162"
         inkscape:connector-curvature="0"
         style="clip-rule:evenodd" /></clipPath><clipPath
       clipPathUnits="userSpaceOnUse"
       id="clipPath168"><path
         d="M -1.1893e-5,369 H 507 V 3.0518e-5 H -4.292e-5"
         id="path166"
         inkscape:connector-curvature="0"
         style="clip-rule:evenodd" /></clipPath><clipPath
       clipPathUnits="userSpaceOnUse"
       id="clipPath172"><path
         d="M 7.555e-6,0 H 507.00001 V 369 H 7.555e-6 Z"
         id="path170"
         inkscape:connector-curvature="0"
         style="clip-rule:evenodd" /></clipPath><clipPath
       clipPathUnits="userSpaceOnUse"
       id="clipPath176"><path
         d="M 7.555e-6,0 H 507.00001 V 369 H 7.555e-6 Z"
         id="path174"
         inkscape:connector-curvature="0"
         style="clip-rule:evenodd" /></clipPath><clipPath
       clipPathUnits="userSpaceOnUse"
       id="clipPath180"><path
         d="M 7.555e-6,0 H 507.00001 V 369 H 7.555e-6 Z"
         id="path178"
         inkscape:connector-curvature="0"
         style="clip-rule:evenodd" /></clipPath><clipPath
       clipPathUnits="userSpaceOnUse"
       id="clipPath184"><path
         d="M 7.555e-6,0 H 507.00001 V 369 H 7.555e-6 Z"
         id="path182"
         inkscape:connector-curvature="0"
         style="clip-rule:evenodd" /></clipPath><clipPath
       clipPathUnits="userSpaceOnUse"
       id="clipPath188"><path
         d="M 7.555e-6,0 H 507.00001 V 369 H 7.555e-6 Z"
         id="path186"
         inkscape:connector-curvature="0"
         style="clip-rule:evenodd" /></clipPath><clipPath
       clipPathUnits="userSpaceOnUse"
       id="clipPath192"><path
         d="M 7.555e-6,0 H 507.00001 V 369 H 7.555e-6 Z"
         id="path190"
         inkscape:connector-curvature="0"
         style="clip-rule:evenodd" /></clipPath><clipPath
       clipPathUnits="userSpaceOnUse"
       id="clipPath196"><path
         d="M 7.555e-6,0 H 507.00001 V 369 H 7.555e-6 Z"
         id="path194"
         inkscape:connector-curvature="0"
         style="clip-rule:evenodd" /></clipPath><clipPath
       clipPathUnits="userSpaceOnUse"
       id="clipPath200"><path
         d="M 7.555e-6,0 H 507.00001 V 369 H 7.555e-6 Z"
         id="path198"
         inkscape:connector-curvature="0"
         style="clip-rule:evenodd" /></clipPath></defs><sodipodi:namedview
     pagecolor="#ffffff"
     bordercolor="#666666"
     borderopacity="1"
     objecttolerance="10"
     gridtolerance="10"
     guidetolerance="10"
     inkscape:pageopacity="0"
     inkscape:pageshadow="2"
     inkscape:window-width="1366"
     inkscape:window-height="705"
     id="namedview4"
     showgrid="false"
     inkscape:zoom="1.189304"
     inkscape:cx="233.45465"
     inkscape:cy="597.59632"
     inkscape:window-x="-8"
     inkscape:window-y="-8"
     inkscape:window-maximized="1"
     inkscape:current-layer="g492" /><g
     id="g10"
     inkscape:groupmode="layer"
     inkscape:label="exercise3"
     transform="matrix(1.3333333,0,0,-1.3333333,0,1122.52)"><g
       clip-path="url(#clipPath84)"
       id="g492"
       transform="translate(18.918628,250.98713)"><g
   id="g206"><g
     clip-path="url(#clipPath88)"
     id="g204"><path
       d="M 0,-0.017578 H 507.4 V 369.00242 H 0 Z"
       style="fill:none;stroke:#c8c8c8;stroke-width:0.25;stroke-linecap:square;stroke-linejoin:miter;stroke-miterlimit:10;stroke-dasharray:none;stroke-opacity:1"
       id="path202"
       inkscape:connector-curvature="0" /></g></g><path
   d="m 72.99,151.5 c 0,11.74 9.519,21.26 21.26,21.26 11.74,0 21.26,-9.52 21.26,-21.26 0,-11.74 -9.52,-21.26 -21.26,-21.26 -11.741,0 -21.26,9.52 -21.26,21.26 z"
   style="fill:#ffffff;fill-opacity:1;fill-rule:evenodd;stroke:none"
   id="path208"
   inkscape:connector-curvature="0" /><path
   d="m 72.99,151.5 c 0,11.74 9.519,21.26 21.26,21.26 11.74,0 21.26,-9.52 21.26,-21.26 0,-11.74 -9.52,-21.26 -21.26,-21.26 -11.741,0 -21.26,9.52 -21.26,21.26 z"
   style="fill:none;stroke:#000000;stroke-width:1;stroke-linecap:square;stroke-linejoin:miter;stroke-miterlimit:10;stroke-dasharray:none;stroke-opacity:1"
   id="path210"
   inkscape:connector-curvature="0" /><g
   id="g218"><g
     clip-path="url(#clipPath92)"
     id="g216"><text
   transform="matrix(1,0,0,-1,88.425,145.65)"
   style="font-variant:normal;font-weight:bold;font-size:18.04999924px;font-family:Calibri;-inkscape-font-specification:Calibri-Bold;writing-mode:lr-tb;fill:#000000;fill-opacity:1;fill-rule:nonzero;stroke:none"
   id="text214"><tspan
     x="0"
     y="0"
     id="tspan212">J</tspan></text>

</g></g><g
   id="g226"><g
     clip-path="url(#clipPath96)"
     id="g224"><text
   transform="matrix(1,0,0,-1,94.4,143.13)"
   style="font-variant:normal;font-weight:bold;font-size:12.02499962px;font-family:Calibri;-inkscape-font-specification:Calibri-Bold;writing-mode:lr-tb;fill:#000000;fill-opacity:1;fill-rule:nonzero;stroke:none"
   id="text222"><tspan
     x="0"
     y="0"
     id="tspan220">1</tspan></text>

</g></g><path
   d="m 179.29,151.5 c 0,11.74 9.52,21.26 21.26,21.26 11.74,0 21.26,-9.52 21.26,-21.26 0,-11.74 -9.52,-21.26 -21.26,-21.26 -11.74,0 -21.26,9.52 -21.26,21.26 z"
   style="fill:#ffffff;fill-opacity:1;fill-rule:evenodd;stroke:none"
   id="path228"
   inkscape:connector-curvature="0" /><path
   d="m 179.29,151.5 c 0,11.74 9.52,21.26 21.26,21.26 11.74,0 21.26,-9.52 21.26,-21.26 0,-11.74 -9.52,-21.26 -21.26,-21.26 -11.74,0 -21.26,9.52 -21.26,21.26 z"
   style="fill:none;stroke:#000000;stroke-width:1;stroke-linecap:square;stroke-linejoin:miter;stroke-miterlimit:10;stroke-dasharray:none;stroke-opacity:1"
   id="path230"
   inkscape:connector-curvature="0" /><g
   id="g238"><g
     clip-path="url(#clipPath100)"
     id="g236"><text
   transform="matrix(1,0,0,-1,194.9,145.65)"
   style="font-variant:normal;font-weight:bold;font-size:18.04999924px;font-family:Calibri;-inkscape-font-specification:Calibri-Bold;writing-mode:lr-tb;fill:#000000;fill-opacity:1;fill-rule:nonzero;stroke:none"
   id="text234"><tspan
     x="0"
     y="0"
     id="tspan232">J</tspan></text>

</g></g><g
   id="g246"><g
     clip-path="url(#clipPath104)"
     id="g244"><text
   transform="matrix(1,0,0,-1,200.85,143.13)"
   style="font-variant:normal;font-weight:bold;font-size:12.02499962px;font-family:Calibri;-inkscape-font-specification:Calibri-Bold;writing-mode:lr-tb;fill:#000000;fill-opacity:1;fill-rule:nonzero;stroke:none"
   id="text242"><tspan
     x="0"
     y="0"
     id="tspan240">2</tspan></text>

</g></g><path
   d="m 179.29,40.242 c 0,11.742 9.52,21.26 21.26,21.26 11.74,0 21.26,-9.518 21.26,-21.26 0,-11.741 -9.52,-21.26 -21.26,-21.26 -11.74,0 -21.26,9.519 -21.26,21.26 z"
   style="fill:#ffffff;fill-opacity:1;fill-rule:evenodd;stroke:none"
   id="path248"
   inkscape:connector-curvature="0" /><path
   d="m 179.29,40.242 c 0,11.742 9.52,21.26 21.26,21.26 11.74,0 21.26,-9.518 21.26,-21.26 0,-11.741 -9.52,-21.26 -21.26,-21.26 -11.74,0 -21.26,9.519 -21.26,21.26 z"
   style="fill:none;stroke:#000000;stroke-width:1;stroke-linecap:square;stroke-linejoin:miter;stroke-miterlimit:10;stroke-dasharray:none;stroke-opacity:1"
   id="path250"
   inkscape:connector-curvature="0" /><g
   id="g258"><g
     clip-path="url(#clipPath108)"
     id="g256"><text
   transform="matrix(1,0,0,-1,194.9,34.15)"
   style="font-variant:normal;font-weight:bold;font-size:18.02499962px;font-family:Calibri;-inkscape-font-specification:Calibri-Bold;writing-mode:lr-tb;fill:#000000;fill-opacity:1;fill-rule:nonzero;stroke:none"
   id="text254"><tspan
     x="0"
     y="0"
     id="tspan252">J</tspan></text>

</g></g><g
   id="g266"><g
     clip-path="url(#clipPath112)"
     id="g264"><text
   transform="matrix(1,0,0,-1,200.85,31.625)"
   style="font-variant:normal;font-weight:bold;font-size:12.02499962px;font-family:Calibri;-inkscape-font-specification:Calibri-Bold;writing-mode:lr-tb;fill:#000000;fill-opacity:1;fill-rule:nonzero;stroke:none"
   id="text262"><tspan
     x="0"
     y="0"
     id="tspan260">3</tspan></text>

</g></g><path
   d="m 285.59,274.65 c 0,11.74 9.52,21.26 21.26,21.26 11.74,0 21.26,-9.52 21.26,-21.26 0,-11.74 -9.52,-21.26 -21.26,-21.26 -11.74,0 -21.26,9.52 -21.26,21.26 z"
   style="fill:#ffffff;fill-opacity:1;fill-rule:evenodd;stroke:none"
   id="path268"
   inkscape:connector-curvature="0" /><path
   d="m 285.59,274.65 c 0,11.74 9.52,21.26 21.26,21.26 11.74,0 21.26,-9.52 21.26,-21.26 0,-11.74 -9.52,-21.26 -21.26,-21.26 -11.74,0 -21.26,9.52 -21.26,21.26 z"
   style="fill:none;stroke:#000000;stroke-width:1;stroke-linecap:square;stroke-linejoin:miter;stroke-miterlimit:10;stroke-dasharray:none;stroke-opacity:1"
   id="path270"
   inkscape:connector-curvature="0" /><g
   id="g278"><g
     clip-path="url(#clipPath116)"
     id="g276"><text
   transform="matrix(1,0,0,-1,301.35,269.05)"
   style="font-variant:normal;font-weight:bold;font-size:18.04999924px;font-family:Calibri;-inkscape-font-specification:Calibri-Bold;writing-mode:lr-tb;fill:#000000;fill-opacity:1;fill-rule:nonzero;stroke:none"
   id="text274"><tspan
     x="0"
     y="0"
     id="tspan272">J</tspan></text>

</g></g><g
   id="g286"><g
     clip-path="url(#clipPath120)"
     id="g284"><text
   transform="matrix(1,0,0,-1,307.3,266.52)"
   style="font-variant:normal;font-weight:bold;font-size:12.02499962px;font-family:Calibri;-inkscape-font-specification:Calibri-Bold;writing-mode:lr-tb;fill:#000000;fill-opacity:1;fill-rule:nonzero;stroke:none"
   id="text282"><tspan
     x="0"
     y="0"
     id="tspan280">4</tspan></text>

</g></g><path
   d="m 285.59,151.5 c 0,11.74 9.52,21.26 21.26,21.26 11.74,0 21.26,-9.52 21.26,-21.26 0,-11.74 -9.52,-21.26 -21.26,-21.26 -11.74,0 -21.26,9.52 -21.26,21.26 z"
   style="fill:#ffffff;fill-opacity:1;fill-rule:evenodd;stroke:none"
   id="path288"
   inkscape:connector-curvature="0" /><path
   d="m 285.59,151.5 c 0,11.74 9.52,21.26 21.26,21.26 11.74,0 21.26,-9.52 21.26,-21.26 0,-11.74 -9.52,-21.26 -21.26,-21.26 -11.74,0 -21.26,9.52 -21.26,21.26 z"
   style="fill:none;stroke:#000000;stroke-width:1;stroke-linecap:square;stroke-linejoin:miter;stroke-miterlimit:10;stroke-dasharray:none;stroke-opacity:1"
   id="path290"
   inkscape:connector-curvature="0" /><g
   id="g298"><g
     clip-path="url(#clipPath124)"
     id="g296"><text
   transform="matrix(1,0,0,-1,301.35,145.65)"
   style="font-variant:normal;font-weight:bold;font-size:18.04999924px;font-family:Calibri;-inkscape-font-specification:Calibri-Bold;writing-mode:lr-tb;fill:#000000;fill-opacity:1;fill-rule:nonzero;stroke:none"
   id="text294"><tspan
     x="0"
     y="0"
     id="tspan292">J</tspan></text>

</g></g><g
   id="g306"><g
     clip-path="url(#clipPath128)"
     id="g304"><text
   transform="matrix(1,0,0,-1,307.3,143.13)"
   style="font-variant:normal;font-weight:bold;font-size:12.02499962px;font-family:Calibri;-inkscape-font-specification:Calibri-Bold;writing-mode:lr-tb;fill:#000000;fill-opacity:1;fill-rule:nonzero;stroke:none"
   id="text302"><tspan
     x="0"
     y="0"
     id="tspan300">5</tspan></text>

</g></g><path
   d="m 285.59,40.242 c 0,11.742 9.52,21.26 21.26,21.26 11.74,0 21.26,-9.518 21.26,-21.26 0,-11.741 -9.52,-21.26 -21.26,-21.26 -11.74,0 -21.26,9.519 -21.26,21.26 z"
   style="fill:#ffffff;fill-opacity:1;fill-rule:evenodd;stroke:none"
   id="path308"
   inkscape:connector-curvature="0" /><path
   d="m 285.59,40.242 c 0,11.742 9.52,21.26 21.26,21.26 11.74,0 21.26,-9.518 21.26,-21.26 0,-11.741 -9.52,-21.26 -21.26,-21.26 -11.74,0 -21.26,9.519 -21.26,21.26 z"
   style="fill:none;stroke:#000000;stroke-width:1;stroke-linecap:square;stroke-linejoin:miter;stroke-miterlimit:10;stroke-dasharray:none;stroke-opacity:1"
   id="path310"
   inkscape:connector-curvature="0" /><g
   id="g318"><g
     clip-path="url(#clipPath132)"
     id="g316"><text
   transform="matrix(1,0,0,-1,301.35,34.15)"
   style="font-variant:normal;font-weight:bold;font-size:18.02499962px;font-family:Calibri;-inkscape-font-specification:Calibri-Bold;writing-mode:lr-tb;fill:#000000;fill-opacity:1;fill-rule:nonzero;stroke:none"
   id="text314"><tspan
     x="0"
     y="0"
     id="tspan312">J</tspan></text>

</g></g><g
   id="g326"><g
     clip-path="url(#clipPath136)"
     id="g324"><text
   transform="matrix(1,0,0,-1,307.3,31.625)"
   style="font-variant:normal;font-weight:bold;font-size:12.02499962px;font-family:Calibri;-inkscape-font-specification:Calibri-Bold;writing-mode:lr-tb;fill:#000000;fill-opacity:1;fill-rule:nonzero;stroke:none"
   id="text322"><tspan
     x="0"
     y="0"
     id="tspan320">6</tspan></text>

</g></g><path
   d="m 391.89,151.5 c 0,11.74 9.52,21.26 21.26,21.26 11.74,0 21.26,-9.52 21.26,-21.26 0,-11.74 -9.52,-21.26 -21.26,-21.26 -11.74,0 -21.26,9.52 -21.26,21.26 z"
   style="fill:#ffffff;fill-opacity:1;fill-rule:evenodd;stroke:none"
   id="path328"
   inkscape:connector-curvature="0" /><path
   d="m 391.89,151.5 c 0,11.74 9.52,21.26 21.26,21.26 11.74,0 21.26,-9.52 21.26,-21.26 0,-11.74 -9.52,-21.26 -21.26,-21.26 -11.74,0 -21.26,9.52 -21.26,21.26 z"
   style="fill:none;stroke:#000000;stroke-width:1;stroke-linecap:square;stroke-linejoin:miter;stroke-miterlimit:10;stroke-dasharray:none;stroke-opacity:1"
   id="path330"
   inkscape:connector-curvature="0" /><g
   id="g338"><g
     clip-path="url(#clipPath140)"
     id="g336"><text
   transform="matrix(1,0,0,-1,407.8,145.65)"
   style="font-variant:normal;font-weight:bold;font-size:18.04999924px;font-family:Calibri;-inkscape-font-specification:Calibri-Bold;writing-mode:lr-tb;fill:#000000;fill-opacity:1;fill-rule:nonzero;stroke:none"
   id="text334"><tspan
     x="0"
     y="0"
     id="tspan332">J</tspan></text>

</g></g><g
   id="g346"><g
     clip-path="url(#clipPath144)"
     id="g344"><text
   transform="matrix(1,0,0,-1,413.77,143.13)"
   style="font-variant:normal;font-weight:bold;font-size:12.02499962px;font-family:Calibri;-inkscape-font-specification:Calibri-Bold;writing-mode:lr-tb;fill:#000000;fill-opacity:1;fill-rule:nonzero;stroke:none"
   id="text342"><tspan
     x="0"
     y="0"
     id="tspan340">7</tspan></text>

</g></g><path
   d="m 115.51,151.5 h 57.62"
   style="fill:none;stroke:#000000;stroke-width:1;stroke-linecap:round;stroke-linejoin:round;stroke-miterlimit:10;stroke-dasharray:none;stroke-opacity:1"
   id="path348"
   inkscape:connector-curvature="0" /><path
   d="m 172.25,155.02 7.04,-3.52 -7.04,-3.52 z"
   style="fill:#000000;fill-opacity:1;fill-rule:evenodd;stroke:none"
   id="path350"
   inkscape:connector-curvature="0" /><path
   d="m 221.81,151.5 h 57.62"
   style="fill:none;stroke:#000000;stroke-width:1;stroke-linecap:round;stroke-linejoin:round;stroke-miterlimit:10;stroke-dasharray:none;stroke-opacity:1"
   id="path352"
   inkscape:connector-curvature="0" /><path
   d="m 278.55,155.02 7.04,-3.52 -7.04,-3.52 z"
   style="fill:#000000;fill-opacity:1;fill-rule:evenodd;stroke:none"
   id="path354"
   inkscape:connector-curvature="0" /><path
   d="m 328.11,151.5 h 57.62"
   style="fill:none;stroke:#000000;stroke-width:1;stroke-linecap:round;stroke-linejoin:round;stroke-miterlimit:10;stroke-dasharray:none;stroke-opacity:1"
   id="path356"
   inkscape:connector-curvature="0" /><path
   d="m 384.85,155.02 7.04,-3.52 -7.04,-3.52 z"
   style="fill:#000000;fill-opacity:1;fill-rule:evenodd;stroke:none"
   id="path358"
   inkscape:connector-curvature="0" /><g
   id="g364"><g
     clip-path="url(#clipPath148)"
     id="g362"><path
       d="m 221.81,151.5 59.33,114.56"
       style="fill:none;stroke:#000000;stroke-width:1;stroke-linecap:round;stroke-linejoin:round;stroke-miterlimit:10;stroke-dasharray:none;stroke-opacity:1"
       id="path360"
       inkscape:connector-curvature="0" /></g></g><g
   id="g370"><g
     clip-path="url(#clipPath152)"
     id="g368"><path
       d="m 277.61,266.89 7.98,7.76 -1.73,-10.99 z"
       style="fill:#000000;fill-opacity:1;fill-rule:evenodd;stroke:none"
       id="path366"
       inkscape:connector-curvature="0" /></g></g><g
   id="g376"><g
     clip-path="url(#clipPath156)"
     id="g374"><path
       d="M 221.81,151.5 280.77,48.64"
       style="fill:none;stroke:#000000;stroke-width:1;stroke-linecap:round;stroke-linejoin:round;stroke-miterlimit:10;stroke-dasharray:none;stroke-opacity:1"
       id="path372"
       inkscape:connector-curvature="0" /></g></g><g
   id="g382"><g
     clip-path="url(#clipPath160)"
     id="g380"><path
       d="m 283.39,51.154 2.2,-10.912 -8.31,7.411 z"
       style="fill:#000000;fill-opacity:1;fill-rule:evenodd;stroke:none"
       id="path378"
       inkscape:connector-curvature="0" /></g></g><g
   id="g388"><g
     clip-path="url(#clipPath164)"
     id="g386"><path
       d="M 328.11,40.242 387.07,143.1"
       style="fill:none;stroke:#000000;stroke-width:1;stroke-linecap:round;stroke-linejoin:round;stroke-miterlimit:10;stroke-dasharray:none;stroke-opacity:1"
       id="path384"
       inkscape:connector-curvature="0" /></g></g><g
   id="g394"><g
     clip-path="url(#clipPath168)"
     id="g392"><path
       d="m 383.58,144.09 8.31,7.41 -2.2,-10.91 z"
       style="fill:#000000;fill-opacity:1;fill-rule:evenodd;stroke:none"
       id="path390"
       inkscape:connector-curvature="0" /></g></g><path
   d="m 221.81,40.242 h 57.62"
   style="fill:none;stroke:#000000;stroke-width:1;stroke-linecap:round;stroke-linejoin:round;stroke-miterlimit:10;stroke-dasharray:none;stroke-opacity:1"
   id="path396"
   inkscape:connector-curvature="0" /><path
   d="m 278.55,43.762 7.04,-3.52 -7.04,-3.52 z"
   style="fill:#000000;fill-opacity:1;fill-rule:evenodd;stroke:none"
   id="path398"
   inkscape:connector-curvature="0" /><g
   id="g406"><g
     clip-path="url(#clipPath172)"
     id="g404"><text
   transform="matrix(1,0,0,-1,72.75,182.65)"
   style="font-variant:normal;font-weight:bold;font-size:18.04999924px;font-family:Calibri;-inkscape-font-specification:Calibri-Bold;writing-mode:lr-tb;fill:#000000;fill-opacity:1;fill-rule:nonzero;stroke:none"
   id="text402"><tspan
     x="0 5.2525501 14.9815 19.47595 28.482901 37.489849"
     y="0"
     sodipodi:role="line"
     id="tspan400">(0,30)</tspan></text>

</g></g><g
   id="g414"><g
     clip-path="url(#clipPath176)"
     id="g412"><text
   transform="matrix(1,0,0,-1,179.2,182.65)"
   style="font-variant:normal;font-weight:bold;font-size:18.04999924px;font-family:Calibri;-inkscape-font-specification:Calibri-Bold;writing-mode:lr-tb;fill:#000000;fill-opacity:1;fill-rule:nonzero;stroke:none"
   id="text410"><tspan
     x="0 5.2525501 14.9815 19.47595 28.482901 37.489849"
     y="0"
     sodipodi:role="line"
     id="tspan408">(3,12)</tspan></text>

</g></g><g
   id="g422"><g
     clip-path="url(#clipPath180)"
     id="g420"><text
   transform="matrix(1,0,0,-1,283.7,182.65)"
   style="font-variant:normal;font-weight:bold;font-size:18.04999924px;font-family:Calibri;-inkscape-font-specification:Calibri-Bold;writing-mode:lr-tb;fill:#000000;fill-opacity:1;fill-rule:nonzero;stroke:none"
   id="text418"><tspan
     x="0 5.2525501 14.9815 19.47595 28.482901 37.489849"
     y="0"
     sodipodi:role="line"
     id="tspan416">(7,14)</tspan></text>

</g></g><g
   id="g430"><g
     clip-path="url(#clipPath184)"
     id="g428"><text
   transform="matrix(1,0,0,-1,392.1,182.65)"
   style="font-variant:normal;font-weight:bold;font-size:18.04999924px;font-family:Calibri;-inkscape-font-specification:Calibri-Bold;writing-mode:lr-tb;fill:#000000;fill-opacity:1;fill-rule:nonzero;stroke:none"
   id="text426"><tspan
     x="0 5.2705998 15.03565 19.5662 28.5912 37.616199"
     y="0"
     sodipodi:role="line"
     id="tspan424">(5,20)</tspan></text>

</g></g><g
   id="g438"><g
     clip-path="url(#clipPath188)"
     id="g436"><text
   transform="matrix(1,0,0,-1,283.7,304.63)"
   style="font-variant:normal;font-weight:bold;font-size:18.02499962px;font-family:Calibri;-inkscape-font-specification:Calibri-Bold;writing-mode:lr-tb;fill:#000000;fill-opacity:1;fill-rule:nonzero;stroke:none"
   id="text434"><tspan
     x="0 5.245275 14.978775 19.485025 28.4795 37.473976"
     y="0"
     sodipodi:role="line"
     id="tspan432">(2,25)</tspan></text>

</g></g><g
   id="g446"><g
     clip-path="url(#clipPath192)"
     id="g444"><text
   transform="matrix(1,0,0,-1,288.27,66.75)"
   style="font-variant:normal;font-weight:bold;font-size:18.04999924px;font-family:Calibri;-inkscape-font-specification:Calibri-Bold;writing-mode:lr-tb;fill:#000000;fill-opacity:1;fill-rule:nonzero;stroke:none"
   id="text442"><tspan
     x="0 5.2525501 14.9815 19.47595 28.482901"
     y="0"
     sodipodi:role="line"
     id="tspan440">(0,8)</tspan></text>

</g></g><g
   id="g454"><g
     clip-path="url(#clipPath196)"
     id="g452"><text
   transform="matrix(1,0,0,-1,183.78,66.75)"
   style="font-variant:normal;font-weight:bold;font-size:18.04999924px;font-family:Calibri;-inkscape-font-specification:Calibri-Bold;writing-mode:lr-tb;fill:#000000;fill-opacity:1;fill-rule:nonzero;stroke:none"
   id="text450"><tspan
     x="0 5.2525501 14.9815 19.47595 28.482901"
     y="0"
     sodipodi:role="line"
     id="tspan448">(1,9)</tspan></text>

</g></g><path
   d="m 62.434,200.42 h 67.25 v 25.835 h -67.25 z"
   style="fill:#ffffff;fill-opacity:1;fill-rule:evenodd;stroke:none"
   id="path456"
   inkscape:connector-curvature="0" /><path
   d="m 62.434,200.42 h 67.25 v 25.835 h -67.25 z"
   style="fill:none;stroke:#000000;stroke-width:0.75;stroke-linecap:square;stroke-linejoin:miter;stroke-miterlimit:2;stroke-dasharray:none;stroke-opacity:1"
   id="path458"
   inkscape:connector-curvature="0" /><path
   d="m 166.92,200.42 h 67.25 v 25.835 h -67.25 z"
   style="fill:#ffffff;fill-opacity:1;fill-rule:evenodd;stroke:none"
   id="path460"
   inkscape:connector-curvature="0" /><path
   d="m 166.92,200.42 h 67.25 v 25.835 h -67.25 z"
   style="fill:none;stroke:#000000;stroke-width:0.75;stroke-linecap:square;stroke-linejoin:miter;stroke-miterlimit:2;stroke-dasharray:none;stroke-opacity:1"
   id="path462"
   inkscape:connector-curvature="0" /><path
   d="m 166.92,84.022 h 67.25 v 25.835 h -67.25 z"
   style="fill:#ffffff;fill-opacity:1;fill-rule:evenodd;stroke:none"
   id="path464"
   inkscape:connector-curvature="0" /><path
   d="m 166.92,84.022 h 67.25 v 25.835 h -67.25 z"
   style="fill:none;stroke:#000000;stroke-width:0.75;stroke-linecap:square;stroke-linejoin:miter;stroke-miterlimit:2;stroke-dasharray:none;stroke-opacity:1"
   id="path466"
   inkscape:connector-curvature="0" /><path
   d="m 273.22,84.022 h 67.25 v 25.835 h -67.25 z"
   style="fill:#ffffff;fill-opacity:1;fill-rule:evenodd;stroke:none"
   id="path468"
   inkscape:connector-curvature="0" /><path
   d="m 273.22,84.022 h 67.25 v 25.835 h -67.25 z"
   style="fill:none;stroke:#000000;stroke-width:0.75;stroke-linecap:square;stroke-linejoin:miter;stroke-miterlimit:2;stroke-dasharray:none;stroke-opacity:1"
   id="path470"
   inkscape:connector-curvature="0" /><path
   d="m 273.22,200.42 h 67.25 v 25.835 h -67.25 z"
   style="fill:#ffffff;fill-opacity:1;fill-rule:evenodd;stroke:none"
   id="path472"
   inkscape:connector-curvature="0" /><path
   d="m 273.22,200.42 h 67.25 v 25.835 h -67.25 z"
   style="fill:none;stroke:#000000;stroke-width:0.75;stroke-linecap:square;stroke-linejoin:miter;stroke-miterlimit:2;stroke-dasharray:none;stroke-opacity:1"
   id="path474"
   inkscape:connector-curvature="0" /><path
   d="m 273.22,324.42 h 67.25 v 25.835 h -67.25 z"
   style="fill:#ffffff;fill-opacity:1;fill-rule:evenodd;stroke:none"
   id="path476"
   inkscape:connector-curvature="0" /><path
   d="m 273.22,324.42 h 67.25 v 25.835 h -67.25 z"
   style="fill:none;stroke:#000000;stroke-width:0.75;stroke-linecap:square;stroke-linejoin:miter;stroke-miterlimit:2;stroke-dasharray:none;stroke-opacity:1"
   id="path478"
   inkscape:connector-curvature="0" /><path
   d="m 379.52,200.42 h 67.25 v 25.835 h -67.25 z"
   style="fill:#ffffff;fill-opacity:1;fill-rule:evenodd;stroke:none"
   id="path480"
   inkscape:connector-curvature="0" /><path
   d="m 379.52,200.42 h 67.25 v 25.835 h -67.25 z"
   style="fill:none;stroke:#000000;stroke-width:0.75;stroke-linecap:square;stroke-linejoin:miter;stroke-miterlimit:2;stroke-dasharray:none;stroke-opacity:1"
   id="path482"
   inkscape:connector-curvature="0" /><g
   id="g490"><g
     clip-path="url(#clipPath200)"
     id="g488"><text
   transform="matrix(1,0,0,-1,392.1,207.6)"
   style="font-variant:normal;font-weight:bold;font-size:18.02499962px;font-family:Calibri;-inkscape-font-specification:Calibri-Bold;writing-mode:lr-tb;fill:#ff0000;fill-opacity:1;fill-rule:nonzero;stroke:none"
   id="text486"><tspan
     x="0 5.245275 14.9968 19.50305 28.533575 37.564098"
     y="0"
     sodipodi:role="line"
     id="tspan484">(7,20)</tspan></text>

</g></g><text
   xml:space="preserve"
   style="font-style:normal;font-variant:normal;font-weight:normal;font-stretch:normal;font-size:18.66600037px;line-height:125%;font-family:sans-serif;-inkscape-font-specification:'sans-serif, Normal';font-variant-ligatures:normal;font-variant-caps:normal;font-variant-numeric:normal;font-feature-settings:normal;text-align:start;letter-spacing:0px;word-spacing:0px;writing-mode:lr-tb;text-anchor:start;fill:#000000;fill-opacity:1;stroke:none;stroke-width:0.46665913px;stroke-linecap:butt;stroke-linejoin:miter;stroke-opacity:1"
   x="170.18927"
   y="-95.337952"
   id="text4918"
   transform="scale(1.039163,-0.96231292)"><tspan
     sodipodi:role="line"
     id="tspan227"
     x="170.18927"
     y="-95.337952">(1,8)</tspan></text>

<text
   xml:space="preserve"
   style="font-style:normal;font-variant:normal;font-weight:normal;font-stretch:normal;font-size:18.44400024px;line-height:125%;font-family:sans-serif;-inkscape-font-specification:'sans-serif, Normal';font-variant-ligatures:normal;font-variant-caps:normal;font-variant-numeric:normal;font-feature-settings:normal;text-align:start;letter-spacing:0px;word-spacing:0px;writing-mode:lr-tb;text-anchor:start;fill:#000000;fill-opacity:1;stroke:none;stroke-width:0.46110997px;stroke-linecap:butt;stroke-linejoin:miter;stroke-opacity:1"
   x="69.329979"
   y="-205.35025"
   id="text4922"
   transform="scale(0.98786606,-1.012283)"><tspan
     sodipodi:role="line"
     id="tspan231"
     x="69.329979"
     y="-205.35025">(0,8)</tspan></text>

<text
   xml:space="preserve"
   style="font-style:normal;font-variant:normal;font-weight:normal;font-stretch:normal;font-size:20.62199974px;line-height:125%;font-family:sans-serif;-inkscape-font-specification:'sans-serif, Normal';font-variant-ligatures:normal;font-variant-caps:normal;font-variant-numeric:normal;font-feature-settings:normal;text-align:start;letter-spacing:0px;word-spacing:0px;writing-mode:lr-tb;text-anchor:start;fill:#000000;fill-opacity:1;stroke:none;stroke-width:0.51554304px;stroke-linecap:butt;stroke-linejoin:miter;stroke-opacity:1"
   x="180.43477"
   y="-196.68538"
   id="text4926"
   transform="scale(0.95900652,-1.0427458)"><tspan
     sodipodi:role="line"
     id="tspan229"
     x="180.43477"
     y="-196.68538">(3,8)</tspan></text>

<text
   xml:space="preserve"
   style="font-style:normal;font-weight:normal;font-size:21.02126503px;line-height:125%;font-family:sans-serif;letter-spacing:0px;word-spacing:0px;fill:#000000;fill-opacity:1;stroke:none;stroke-width:0.52553165px;stroke-linecap:butt;stroke-linejoin:miter;stroke-opacity:1"
   x="262.78635"
   y="-346.42545"
   id="text4930"
   transform="scale(1.0465067,-0.95556005)"><tspan
     sodipodi:role="line"
     id="tspan4928"
     x="262.78635"
     y="-346.42545"
     style="stroke-width:0.52553165px">(3,25)</tspan></text>

<text
   xml:space="preserve"
   style="font-style:normal;font-weight:normal;font-size:20.62172127px;line-height:125%;font-family:sans-serif;letter-spacing:0px;word-spacing:0px;fill:#000000;fill-opacity:1;stroke:none;stroke-width:0.51554304px;stroke-linecap:butt;stroke-linejoin:miter;stroke-opacity:1"
   x="290.25015"
   y="-197.29015"
   id="text4934"
   transform="scale(0.95900652,-1.0427458)"><tspan
     sodipodi:role="line"
     id="tspan4932"
     x="290.25015"
     y="-197.29015"
     style="stroke-width:0.51554304px">(7,14)</tspan></text>

<text
   xml:space="preserve"
   style="font-style:normal;font-weight:normal;font-size:21.68461037px;line-height:125%;font-family:sans-serif;letter-spacing:0px;word-spacing:0px;fill:#000000;fill-opacity:1;stroke:none;stroke-width:0.54211527px;stroke-linecap:butt;stroke-linejoin:miter;stroke-opacity:1"
   x="258.14029"
   y="-97.982224"
   id="text4938"
   transform="scale(1.0795302,-0.92632888)"><tspan
     sodipodi:role="line"
     id="tspan4936"
     x="258.14029"
     y="-97.982224"
     style="stroke-width:0.54211527px">(3,8)</tspan></text>

</g></g></svg>